<?xml version="1.0" encoding="utf-8"?>
<!-- Generator: Adobe Illustrator 16.2.0, SVG Export Plug-In . SVG Version: 6.00 Build 0)  -->
<!DOCTYPE svg PUBLIC "-//W3C//DTD SVG 1.1//EN" "http://www.w3.org/Graphics/SVG/1.1/DTD/svg11.dtd">
<svg version="1.1" id="Layer_1" xmlns="http://www.w3.org/2000/svg" xmlns:xlink="http://www.w3.org/1999/xlink" x="0px" y="0px"
	 width="612px" height="792px" viewBox="0 0 612 792" enable-background="new 0 0 612 792" xml:space="preserve">
<path d="M459.75,359.852v-0.007h-28.351H204.021l159.74-107.74l-48.632,82.537l0,0c-0.194,0.367-0.314,0.779-0.314,1.229
	c0,1.409,1.146,2.562,2.562,2.562l0,0h19.329l0.008-0.015h45.867c0.27,0.007,0.532,0.015,0.802,0.015
	c24.634,0,44.607-19.974,44.607-44.604c0-22.709-16.969-41.458-38.922-44.249l32.621-55.367c0.277-0.412,0.442-0.906,0.442-1.438
	c0-1.412-1.146-2.559-2.562-2.559c-0.539,0-1.041,0.169-1.453,0.457v-0.003l-30.134,20.322l-0.015,0.03l-56.655,38.214H201.698l0,0
	c-1.371,0-2.487,1.087-2.548,2.442v0.108v17.97v68.624l-55.239,37.259c-0.757,0.45-1.273,1.274-1.273,2.218
	c0,1.408,1.146,2.554,2.562,2.554c0.007,0,0.015,0,0.022,0h28.312l0.06-0.037h227.378l-147.617,99.57l43.634-74.082
	c0.277-0.479,0.495-0.944,0.495-1.514c0-1.379-1.102-2.51-2.48-2.547l0,0h-93.299l0,0c-1.409,0-2.547,1.146-2.547,2.555h-0.008
	v84.083h0.008c0,1.387,1.116,2.518,2.502,2.547h21.375l-27.579,46.811h0.008c-0.277,0.404-0.435,0.899-0.435,1.423
	c0,1.409,1.146,2.562,2.562,2.562c0.554,0,1.063-0.18,1.483-0.479l74.562-50.294c17.352,0.006,109.288,0,109.745,0
	c24.634,0,44.607-19.967,44.607-44.61c0-18.482-11.245-34.344-27.271-41.109l60.199-40.599c0.824-0.427,1.387-1.282,1.387-2.278
	C462.305,360.998,461.166,359.852,459.75,359.852z M383.128,269.763c0.082-0.004,0.172-0.007,0.255-0.007
	c13.298,0,24.072,10.777,24.072,24.072c0,13.294-10.774,24.076-24.072,24.076c-0.083,0-0.173-0.007-0.255-0.015l-34.321,0.015
	l28.365-48.141H383.128z M219.672,269.755h81.223l-81.223,54.786V269.755z M219.672,470.459v-48.145h43.807l-28.358,48.145H219.672z
	 M407.455,446.4c0,13.299-10.774,24.073-24.072,24.073v-0.014h-79.282l71.362-48.131h7.92
	C396.681,422.329,407.455,433.103,407.455,446.4z" fill="#50B7C8"/>
</svg>
